<svg xmlns="http://www.w3.org/2000/svg" width="190" height="50" data-bbox="4 4 178.372 42" data-type="color"><path fill="#54E6FF" d="M46 12v26a8 8 0 0 1-8 8H12a8 8 0 0 1-8-8V12a8 8 0 0 1 8-8h26a8 8 0 0 1 8 8z" data-color="1"/><g fill-rule="evenodd" clip-path="url(#a)" clip-rule="evenodd"><path fill="#fff" d="M120.557 15.737a1.573 1.573 0 0 1 2.041.87l5.114 12.724a3.068 3.068 0 0 0 2.848 1.919c.867 0 1.57.7 1.57 1.562 0 .863-.703 1.563-1.57 1.563h-3.14a1.57 1.57 0 0 1-1.458-.982l-6.28-15.625a1.56 1.56 0 0 1 .875-2.031zm16.867 0a1.56 1.56 0 0 1 .874 2.03l-4.067 10.12a1.573 1.573 0 0 1-2.041.87 1.56 1.56 0 0 1-.874-2.031l4.067-10.119a1.573 1.573 0 0 1 2.041-.87zm-82.827.007a1.575 1.575 0 0 1 1.711.339l9.735 9.687c.613.61.613 1.6 0 2.21-.614.61-1.608.61-2.22 0l-4.375-4.353c-.989-.984-2.68-.287-2.68 1.105v8.08c0 .864-.703 1.563-1.57 1.563-.867 0-1.57-.7-1.57-1.563V17.188c0-.632.383-1.202.97-1.444zm17.872 1.444v15.625c0 .862-.703 1.562-1.57 1.562-.868 0-1.57-.7-1.57-1.563V17.188c0-.863.703-1.563 1.57-1.563.867 0 1.57.7 1.57 1.563zm69.082 0c0-.863.703-1.563 1.57-1.563h15.7c.867 0 1.57.7 1.57 1.563v15.625c0 .862-.703 1.562-1.57 1.562-.867 0-1.57-.7-1.57-1.563V21.25c0-1.38-1.125-2.5-2.512-2.5h-7.536a2.506 2.506 0 0 0-2.512 2.5v7.5c0 1.38 1.124 2.5 2.512 2.5h5.338c.867 0 1.57.7 1.57 1.563 0 .862-.703 1.562-1.57 1.562h-9.42c-.867 0-1.57-.7-1.57-1.563V17.188zm-65.942 0c0-.863.703-1.563 1.57-1.563h15.7c.867 0 1.57.7 1.57 1.563 0 .862-.703 1.562-1.57 1.562H81.104a2.35 2.35 0 0 0-2.355 2.344 2.35 2.35 0 0 0 2.355 2.343h2.355c.867 0 1.57.7 1.57 1.563s-.703 1.563-1.57 1.563h-6.28c-.867 0-1.57-.7-1.57-1.563v-7.813zm0 15.625c0-.863.703-1.563 1.57-1.563h15.7c.867 0 1.57.7 1.57 1.563 0 .862-.703 1.562-1.57 1.562h-15.7c-.867 0-1.57-.7-1.57-1.563z" data-color="2"/><path fill="#54E6FF" d="M98.05 16.083a1.576 1.576 0 0 1 2.22 0l2.489 2.477a6.027 6.027 0 0 0 4.251 1.753c1.593 0 3.122-.63 4.249-1.752h.001l2.49-2.478a1.575 1.575 0 0 1 2.22 0c.613.61.613 1.6 0 2.21l-2.49 2.477-.002.002-2.218 2.208a1.575 1.575 0 0 1-1.11.457h-6.28c-.417 0-.816-.164-1.111-.457l-2.219-2.209h-.001l-2.49-2.479a1.557 1.557 0 0 1 0-2.21zm8.96 13.605c-1.595 0-3.123.63-4.251 1.752l-2.489 2.477c-.614.61-1.608.61-2.22 0a1.557 1.557 0 0 1 0-2.21l4.709-4.687a1.576 1.576 0 0 1 1.111-.457h6.28c.416 0 .815.164 1.11.457l4.71 4.688c.613.61.613 1.6 0 2.21-.613.61-1.607.61-2.22 0l-2.49-2.478a6.024 6.024 0 0 0-4.25-1.753zm56.981-13.605a1.576 1.576 0 0 1 2.221 0l2.489 2.477a6.027 6.027 0 0 0 4.251 1.753 6.02 6.02 0 0 0 4.25-1.753l2.49-2.477a1.575 1.575 0 0 1 2.22 0c.613.61.613 1.6 0 2.21l-2.49 2.477-.002.002-2.218 2.208a1.573 1.573 0 0 1-1.11.457h-6.28c-.417 0-.816-.164-1.111-.457l-2.219-2.209h-.001l-2.49-2.479a1.558 1.558 0 0 1 0-2.21zm8.961 13.605c-1.595 0-3.123.63-4.251 1.752l-2.489 2.477c-.614.61-1.608.61-2.221 0a1.558 1.558 0 0 1 0-2.21l4.71-4.687a1.576 1.576 0 0 1 1.111-.457h6.28c.416 0 .816.164 1.11.457l4.71 4.688c.613.61.613 1.6 0 2.21-.613.61-1.607.61-2.22 0l-2.49-2.478a6.024 6.024 0 0 0-4.25-1.753z" data-color="1"/></g><path fill="#1E1749" fill-rule="evenodd" d="M10.475 10.732a2.494 2.494 0 0 1 3.53 0l3.958 3.965a9.55 9.55 0 0 0 13.515 0l3.959-3.965a2.494 2.494 0 0 1 3.53 0c.974.977.974 2.56 0 3.536l-3.959 3.964a.092.092 0 0 0-.003.003l-3.527 3.533a2.494 2.494 0 0 1-1.765.732h-9.985a2.495 2.495 0 0 1-1.765-.732l-3.528-3.534-.002-.002-3.958-3.964a2.503 2.503 0 0 1 0-3.536zM24.72 32.5a9.55 9.55 0 0 0-6.758 2.803l-3.958 3.965a2.494 2.494 0 0 1-3.53 0 2.503 2.503 0 0 1 0-3.536l7.488-7.5a2.495 2.495 0 0 1 1.765-.732h9.985c.662 0 1.297.263 1.765.732l7.489 7.5c.974.977.974 2.56 0 3.536a2.493 2.493 0 0 1-3.53 0l-3.959-3.965A9.549 9.549 0 0 0 24.72 32.5z" clip-rule="evenodd" data-color="3"/><defs fill="none"><clipPath id="a"><path fill="#fff" d="M183 15v20H53V15h130z"/></clipPath></defs></svg>